<mxfile host="Electron" agent="Mozilla/5.0 (Windows NT 10.0; Win64; x64) AppleWebKit/537.36 (KHTML, like Gecko) draw.io/27.0.9 Chrome/134.0.6998.205 Electron/35.4.0 Safari/537.36" version="27.0.9">
  <diagram name="Страница — 1" id="fHpHDEbYnM0TIH_YmjkK">
    <mxGraphModel dx="2253" dy="841" grid="1" gridSize="10" guides="1" tooltips="1" connect="1" arrows="1" fold="1" page="1" pageScale="1" pageWidth="827" pageHeight="1169" math="0" shadow="0">
      <root>
        <mxCell id="0" />
        <mxCell id="1" parent="0" />
        <mxCell id="gASqoC5ZUlllP4egUMLl-1" value="Attraction" style="swimlane;fontStyle=0;childLayout=stackLayout;horizontal=1;startSize=26;fillColor=none;horizontalStack=0;resizeParent=1;resizeParentMax=0;resizeLast=0;collapsible=1;marginBottom=0;whiteSpace=wrap;html=1;" parent="1" vertex="1">
          <mxGeometry x="360" y="50" width="140" height="122" as="geometry" />
        </mxCell>
        <mxCell id="gASqoC5ZUlllP4egUMLl-2" value="-name: string" style="text;strokeColor=none;fillColor=none;align=left;verticalAlign=top;spacingLeft=4;spacingRight=4;overflow=hidden;rotatable=0;points=[[0,0.5],[1,0.5]];portConstraint=eastwest;whiteSpace=wrap;html=1;" parent="gASqoC5ZUlllP4egUMLl-1" vertex="1">
          <mxGeometry y="26" width="140" height="24" as="geometry" />
        </mxCell>
        <mxCell id="hYoUaHSmlGCQ8pVwYXb8-1" value="-name: string" style="text;strokeColor=none;fillColor=none;align=left;verticalAlign=top;spacingLeft=4;spacingRight=4;overflow=hidden;rotatable=0;points=[[0,0.5],[1,0.5]];portConstraint=eastwest;whiteSpace=wrap;html=1;" parent="gASqoC5ZUlllP4egUMLl-1" vertex="1">
          <mxGeometry y="50" width="140" height="24" as="geometry" />
        </mxCell>
        <mxCell id="hYoUaHSmlGCQ8pVwYXb8-2" value="-name: string" style="text;strokeColor=none;fillColor=none;align=left;verticalAlign=top;spacingLeft=4;spacingRight=4;overflow=hidden;rotatable=0;points=[[0,0.5],[1,0.5]];portConstraint=eastwest;whiteSpace=wrap;html=1;" parent="gASqoC5ZUlllP4egUMLl-1" vertex="1">
          <mxGeometry y="74" width="140" height="24" as="geometry" />
        </mxCell>
        <mxCell id="hYoUaHSmlGCQ8pVwYXb8-7" value="-name: string" style="text;strokeColor=none;fillColor=none;align=left;verticalAlign=top;spacingLeft=4;spacingRight=4;overflow=hidden;rotatable=0;points=[[0,0.5],[1,0.5]];portConstraint=eastwest;whiteSpace=wrap;html=1;" parent="gASqoC5ZUlllP4egUMLl-1" vertex="1">
          <mxGeometry y="98" width="140" height="24" as="geometry" />
        </mxCell>
        <mxCell id="gASqoC5ZUlllP4egUMLl-5" value="&lt;div style=&quot;font-family: Consolas, &amp;quot;Courier New&amp;quot;, monospace; font-weight: normal; font-size: 14px; line-height: 19px; white-space-collapse: preserve;&quot;&gt;&lt;span&gt;&lt;font style=&quot;color: light-dark(rgb(18, 17, 17), rgb(62, 62, 62));&quot;&gt;Description du schéma de base de données&lt;/font&gt;&lt;/span&gt;&lt;/div&gt;" style="text;align=center;fontStyle=1;verticalAlign=middle;spacingLeft=3;spacingRight=3;strokeColor=none;rotatable=0;points=[[0,0.5],[1,0.5]];portConstraint=eastwest;html=1;" parent="1" vertex="1">
          <mxGeometry x="240" y="20" width="370" height="26" as="geometry" />
        </mxCell>
        <mxCell id="gASqoC5ZUlllP4egUMLl-6" value="Photo" style="swimlane;fontStyle=0;childLayout=stackLayout;horizontal=1;startSize=26;fillColor=none;horizontalStack=0;resizeParent=1;resizeParentMax=0;resizeLast=0;collapsible=1;marginBottom=0;whiteSpace=wrap;html=1;" parent="1" vertex="1">
          <mxGeometry x="-10" y="208" width="140" height="104" as="geometry" />
        </mxCell>
        <mxCell id="gASqoC5ZUlllP4egUMLl-7" value="-name:string" style="text;strokeColor=none;fillColor=none;align=left;verticalAlign=top;spacingLeft=4;spacingRight=4;overflow=hidden;rotatable=0;points=[[0,0.5],[1,0.5]];portConstraint=eastwest;whiteSpace=wrap;html=1;" parent="gASqoC5ZUlllP4egUMLl-6" vertex="1">
          <mxGeometry y="26" width="140" height="26" as="geometry" />
        </mxCell>
        <mxCell id="gASqoC5ZUlllP4egUMLl-8" value="-dateUpload: date" style="text;strokeColor=none;fillColor=none;align=left;verticalAlign=top;spacingLeft=4;spacingRight=4;overflow=hidden;rotatable=0;points=[[0,0.5],[1,0.5]];portConstraint=eastwest;whiteSpace=wrap;html=1;" parent="gASqoC5ZUlllP4egUMLl-6" vertex="1">
          <mxGeometry y="52" width="140" height="26" as="geometry" />
        </mxCell>
        <mxCell id="gASqoC5ZUlllP4egUMLl-9" value="-url:string" style="text;strokeColor=none;fillColor=none;align=left;verticalAlign=top;spacingLeft=4;spacingRight=4;overflow=hidden;rotatable=0;points=[[0,0.5],[1,0.5]];portConstraint=eastwest;whiteSpace=wrap;html=1;" parent="gASqoC5ZUlllP4egUMLl-6" vertex="1">
          <mxGeometry y="78" width="140" height="26" as="geometry" />
        </mxCell>
        <mxCell id="gASqoC5ZUlllP4egUMLl-10" value="" style="endArrow=none;endFill=0;endSize=24;html=1;rounded=0;" parent="1" source="gASqoC5ZUlllP4egUMLl-6" target="gASqoC5ZUlllP4egUMLl-1" edge="1">
          <mxGeometry width="160" relative="1" as="geometry">
            <mxPoint x="330" y="220" as="sourcePoint" />
            <mxPoint x="490" y="220" as="targetPoint" />
          </mxGeometry>
        </mxCell>
        <mxCell id="gASqoC5ZUlllP4egUMLl-11" value="*" style="edgeLabel;html=1;align=center;verticalAlign=middle;resizable=0;points=[];" parent="gASqoC5ZUlllP4egUMLl-10" vertex="1" connectable="0">
          <mxGeometry x="-0.723" relative="1" as="geometry">
            <mxPoint as="offset" />
          </mxGeometry>
        </mxCell>
        <mxCell id="gASqoC5ZUlllP4egUMLl-12" value="1" style="edgeLabel;html=1;align=center;verticalAlign=middle;resizable=0;points=[];" parent="gASqoC5ZUlllP4egUMLl-10" vertex="1" connectable="0">
          <mxGeometry x="0.6023" relative="1" as="geometry">
            <mxPoint as="offset" />
          </mxGeometry>
        </mxCell>
        <mxCell id="gASqoC5ZUlllP4egUMLl-13" value="avoir" style="edgeLabel;html=1;align=center;verticalAlign=middle;resizable=0;points=[];" parent="gASqoC5ZUlllP4egUMLl-10" vertex="1" connectable="0">
          <mxGeometry x="-0.0665" y="-1" relative="1" as="geometry">
            <mxPoint as="offset" />
          </mxGeometry>
        </mxCell>
        <mxCell id="gASqoC5ZUlllP4egUMLl-14" value="User" style="swimlane;fontStyle=0;childLayout=stackLayout;horizontal=1;startSize=26;fillColor=none;horizontalStack=0;resizeParent=1;resizeParentMax=0;resizeLast=0;collapsible=1;marginBottom=0;whiteSpace=wrap;html=1;" parent="1" vertex="1">
          <mxGeometry x="180" y="470" width="140" height="116" as="geometry" />
        </mxCell>
        <mxCell id="gASqoC5ZUlllP4egUMLl-15" value="-name:string&lt;div&gt;&lt;br&gt;&lt;/div&gt;" style="text;strokeColor=none;fillColor=none;align=left;verticalAlign=top;spacingLeft=4;spacingRight=4;overflow=hidden;rotatable=0;points=[[0,0.5],[1,0.5]];portConstraint=eastwest;whiteSpace=wrap;html=1;" parent="gASqoC5ZUlllP4egUMLl-14" vertex="1">
          <mxGeometry y="26" width="140" height="26" as="geometry" />
        </mxCell>
        <mxCell id="gASqoC5ZUlllP4egUMLl-16" value="-email:string&lt;div&gt;-password:string&lt;/div&gt;" style="text;strokeColor=none;fillColor=none;align=left;verticalAlign=top;spacingLeft=4;spacingRight=4;overflow=hidden;rotatable=0;points=[[0,0.5],[1,0.5]];portConstraint=eastwest;whiteSpace=wrap;html=1;" parent="gASqoC5ZUlllP4egUMLl-14" vertex="1">
          <mxGeometry y="52" width="140" height="38" as="geometry" />
        </mxCell>
        <mxCell id="gASqoC5ZUlllP4egUMLl-17" value="-avatar" style="text;strokeColor=none;fillColor=none;align=left;verticalAlign=top;spacingLeft=4;spacingRight=4;overflow=hidden;rotatable=0;points=[[0,0.5],[1,0.5]];portConstraint=eastwest;whiteSpace=wrap;html=1;" parent="gASqoC5ZUlllP4egUMLl-14" vertex="1">
          <mxGeometry y="90" width="140" height="26" as="geometry" />
        </mxCell>
        <mxCell id="gASqoC5ZUlllP4egUMLl-18" value="" style="endArrow=none;endFill=0;endSize=24;html=1;rounded=0;" parent="1" source="gASqoC5ZUlllP4egUMLl-6" target="gASqoC5ZUlllP4egUMLl-14" edge="1">
          <mxGeometry width="160" relative="1" as="geometry">
            <mxPoint x="300" y="290" as="sourcePoint" />
            <mxPoint x="460" y="290" as="targetPoint" />
          </mxGeometry>
        </mxCell>
        <mxCell id="gASqoC5ZUlllP4egUMLl-19" value="1" style="edgeLabel;html=1;align=center;verticalAlign=middle;resizable=0;points=[];" parent="gASqoC5ZUlllP4egUMLl-18" vertex="1" connectable="0">
          <mxGeometry x="-0.4304" relative="1" as="geometry">
            <mxPoint x="-1" as="offset" />
          </mxGeometry>
        </mxCell>
        <mxCell id="gASqoC5ZUlllP4egUMLl-20" value="1...*" style="edgeLabel;html=1;align=center;verticalAlign=middle;resizable=0;points=[];" parent="gASqoC5ZUlllP4egUMLl-18" vertex="1" connectable="0">
          <mxGeometry x="0.5556" relative="1" as="geometry">
            <mxPoint as="offset" />
          </mxGeometry>
        </mxCell>
        <mxCell id="gASqoC5ZUlllP4egUMLl-21" value="ajouter" style="edgeLabel;html=1;align=center;verticalAlign=middle;resizable=0;points=[];" parent="gASqoC5ZUlllP4egUMLl-18" vertex="1" connectable="0">
          <mxGeometry x="-0.0637" y="2" relative="1" as="geometry">
            <mxPoint as="offset" />
          </mxGeometry>
        </mxCell>
        <mxCell id="gASqoC5ZUlllP4egUMLl-22" value="Review" style="swimlane;fontStyle=0;childLayout=stackLayout;horizontal=1;startSize=26;fillColor=none;horizontalStack=0;resizeParent=1;resizeParentMax=0;resizeLast=0;collapsible=1;marginBottom=0;whiteSpace=wrap;html=1;" parent="1" vertex="1">
          <mxGeometry x="1130" y="570" width="140" height="60" as="geometry" />
        </mxCell>
        <mxCell id="gASqoC5ZUlllP4egUMLl-23" value="-text:string&lt;div&gt;-date:date&lt;/div&gt;" style="text;strokeColor=none;fillColor=none;align=left;verticalAlign=top;spacingLeft=4;spacingRight=4;overflow=hidden;rotatable=0;points=[[0,0.5],[1,0.5]];portConstraint=eastwest;whiteSpace=wrap;html=1;" parent="gASqoC5ZUlllP4egUMLl-22" vertex="1">
          <mxGeometry y="26" width="140" height="34" as="geometry" />
        </mxCell>
        <mxCell id="gASqoC5ZUlllP4egUMLl-30" value="" style="endArrow=none;endFill=0;endSize=24;html=1;rounded=0;" parent="1" target="gASqoC5ZUlllP4egUMLl-22" edge="1">
          <mxGeometry width="160" relative="1" as="geometry">
            <mxPoint x="1080" y="570" as="sourcePoint" />
            <mxPoint x="460" y="230" as="targetPoint" />
          </mxGeometry>
        </mxCell>
        <mxCell id="gASqoC5ZUlllP4egUMLl-31" value="*" style="edgeLabel;html=1;align=center;verticalAlign=middle;resizable=0;points=[];" parent="gASqoC5ZUlllP4egUMLl-30" vertex="1" connectable="0">
          <mxGeometry x="0.6557" y="-1" relative="1" as="geometry">
            <mxPoint as="offset" />
          </mxGeometry>
        </mxCell>
        <mxCell id="gASqoC5ZUlllP4egUMLl-32" value="1" style="edgeLabel;html=1;align=center;verticalAlign=middle;resizable=0;points=[];" parent="gASqoC5ZUlllP4egUMLl-30" vertex="1" connectable="0">
          <mxGeometry x="-0.7419" relative="1" as="geometry">
            <mxPoint as="offset" />
          </mxGeometry>
        </mxCell>
        <mxCell id="gASqoC5ZUlllP4egUMLl-33" value="ecrire" style="edgeLabel;html=1;align=center;verticalAlign=middle;resizable=0;points=[];" parent="gASqoC5ZUlllP4egUMLl-30" vertex="1" connectable="0">
          <mxGeometry x="-0.0595" y="-1" relative="1" as="geometry">
            <mxPoint as="offset" />
          </mxGeometry>
        </mxCell>
        <mxCell id="gASqoC5ZUlllP4egUMLl-34" value="Comment" style="swimlane;fontStyle=0;childLayout=stackLayout;horizontal=1;startSize=26;fillColor=none;horizontalStack=0;resizeParent=1;resizeParentMax=0;resizeLast=0;collapsible=1;marginBottom=0;whiteSpace=wrap;html=1;" parent="1" vertex="1">
          <mxGeometry x="180" y="720" width="140" height="60" as="geometry" />
        </mxCell>
        <mxCell id="gASqoC5ZUlllP4egUMLl-35" value="-text:string&lt;div&gt;-date:date&lt;/div&gt;" style="text;strokeColor=none;fillColor=none;align=left;verticalAlign=top;spacingLeft=4;spacingRight=4;overflow=hidden;rotatable=0;points=[[0,0.5],[1,0.5]];portConstraint=eastwest;whiteSpace=wrap;html=1;" parent="gASqoC5ZUlllP4egUMLl-34" vertex="1">
          <mxGeometry y="26" width="140" height="34" as="geometry" />
        </mxCell>
        <mxCell id="gASqoC5ZUlllP4egUMLl-38" value="" style="endArrow=none;endFill=0;endSize=24;html=1;rounded=0;" parent="1" source="gASqoC5ZUlllP4egUMLl-14" target="gASqoC5ZUlllP4egUMLl-34" edge="1">
          <mxGeometry width="160" relative="1" as="geometry">
            <mxPoint x="300" y="490" as="sourcePoint" />
            <mxPoint x="460" y="490" as="targetPoint" />
          </mxGeometry>
        </mxCell>
        <mxCell id="gASqoC5ZUlllP4egUMLl-39" value="1" style="edgeLabel;html=1;align=center;verticalAlign=middle;resizable=0;points=[];" parent="gASqoC5ZUlllP4egUMLl-38" vertex="1" connectable="0">
          <mxGeometry x="0.6252" y="-1" relative="1" as="geometry">
            <mxPoint as="offset" />
          </mxGeometry>
        </mxCell>
        <mxCell id="gASqoC5ZUlllP4egUMLl-40" value="1...*" style="edgeLabel;html=1;align=center;verticalAlign=middle;resizable=0;points=[];" parent="gASqoC5ZUlllP4egUMLl-38" vertex="1" connectable="0">
          <mxGeometry x="-0.7584" y="-3" relative="1" as="geometry">
            <mxPoint as="offset" />
          </mxGeometry>
        </mxCell>
        <mxCell id="gASqoC5ZUlllP4egUMLl-41" value="ajouter" style="edgeLabel;html=1;align=center;verticalAlign=middle;resizable=0;points=[];" parent="gASqoC5ZUlllP4egUMLl-38" vertex="1" connectable="0">
          <mxGeometry x="0.0366" y="1" relative="1" as="geometry">
            <mxPoint y="-1" as="offset" />
          </mxGeometry>
        </mxCell>
        <mxCell id="gASqoC5ZUlllP4egUMLl-42" value="" style="endArrow=none;endFill=0;endSize=24;html=1;rounded=0;" parent="1" source="gASqoC5ZUlllP4egUMLl-22" edge="1">
          <mxGeometry width="160" relative="1" as="geometry">
            <mxPoint x="300" y="490" as="sourcePoint" />
            <mxPoint x="1100" y="660" as="targetPoint" />
          </mxGeometry>
        </mxCell>
        <mxCell id="gASqoC5ZUlllP4egUMLl-43" value="1" style="edgeLabel;html=1;align=center;verticalAlign=middle;resizable=0;points=[];" parent="gASqoC5ZUlllP4egUMLl-42" vertex="1" connectable="0">
          <mxGeometry x="0.7113" y="-1" relative="1" as="geometry">
            <mxPoint as="offset" />
          </mxGeometry>
        </mxCell>
        <mxCell id="gASqoC5ZUlllP4egUMLl-44" value="1...*" style="edgeLabel;html=1;align=center;verticalAlign=middle;resizable=0;points=[];" parent="gASqoC5ZUlllP4egUMLl-42" vertex="1" connectable="0">
          <mxGeometry x="-0.7564" y="-2" relative="1" as="geometry">
            <mxPoint y="-1" as="offset" />
          </mxGeometry>
        </mxCell>
        <mxCell id="gASqoC5ZUlllP4egUMLl-45" value="sauvgarder" style="edgeLabel;html=1;align=center;verticalAlign=middle;resizable=0;points=[];" parent="gASqoC5ZUlllP4egUMLl-42" vertex="1" connectable="0">
          <mxGeometry x="0.0841" y="-2" relative="1" as="geometry">
            <mxPoint as="offset" />
          </mxGeometry>
        </mxCell>
        <mxCell id="gASqoC5ZUlllP4egUMLl-46" value="Favorite" style="swimlane;fontStyle=0;childLayout=stackLayout;horizontal=1;startSize=26;fillColor=none;horizontalStack=0;resizeParent=1;resizeParentMax=0;resizeLast=0;collapsible=1;marginBottom=0;whiteSpace=wrap;html=1;" parent="1" vertex="1">
          <mxGeometry x="230" y="234" width="140" height="52" as="geometry" />
        </mxCell>
        <mxCell id="gASqoC5ZUlllP4egUMLl-47" value="-date:date" style="text;strokeColor=none;fillColor=none;align=left;verticalAlign=top;spacingLeft=4;spacingRight=4;overflow=hidden;rotatable=0;points=[[0,0.5],[1,0.5]];portConstraint=eastwest;whiteSpace=wrap;html=1;" parent="gASqoC5ZUlllP4egUMLl-46" vertex="1">
          <mxGeometry y="26" width="140" height="26" as="geometry" />
        </mxCell>
        <mxCell id="gASqoC5ZUlllP4egUMLl-50" value="" style="endArrow=none;endFill=0;endSize=24;html=1;rounded=0;" parent="1" source="gASqoC5ZUlllP4egUMLl-46" target="gASqoC5ZUlllP4egUMLl-1" edge="1">
          <mxGeometry width="160" relative="1" as="geometry">
            <mxPoint x="300" y="330" as="sourcePoint" />
            <mxPoint x="470" y="270" as="targetPoint" />
          </mxGeometry>
        </mxCell>
        <mxCell id="gASqoC5ZUlllP4egUMLl-51" value="*" style="edgeLabel;html=1;align=center;verticalAlign=middle;resizable=0;points=[];" parent="gASqoC5ZUlllP4egUMLl-50" vertex="1" connectable="0">
          <mxGeometry x="-0.5372" y="1" relative="1" as="geometry">
            <mxPoint as="offset" />
          </mxGeometry>
        </mxCell>
        <mxCell id="gASqoC5ZUlllP4egUMLl-52" value="1" style="edgeLabel;html=1;align=center;verticalAlign=middle;resizable=0;points=[];" parent="gASqoC5ZUlllP4egUMLl-50" vertex="1" connectable="0">
          <mxGeometry x="0.7242" y="-1" relative="1" as="geometry">
            <mxPoint as="offset" />
          </mxGeometry>
        </mxCell>
        <mxCell id="gASqoC5ZUlllP4egUMLl-53" value="se trouver" style="edgeLabel;html=1;align=center;verticalAlign=middle;resizable=0;points=[];" parent="gASqoC5ZUlllP4egUMLl-50" vertex="1" connectable="0">
          <mxGeometry x="0.0425" y="1" relative="1" as="geometry">
            <mxPoint as="offset" />
          </mxGeometry>
        </mxCell>
        <mxCell id="gASqoC5ZUlllP4egUMLl-54" value="" style="endArrow=none;endFill=0;endSize=24;html=1;rounded=0;" parent="1" source="gASqoC5ZUlllP4egUMLl-14" target="gASqoC5ZUlllP4egUMLl-46" edge="1">
          <mxGeometry width="160" relative="1" as="geometry">
            <mxPoint x="300" y="480" as="sourcePoint" />
            <mxPoint x="460" y="480" as="targetPoint" />
          </mxGeometry>
        </mxCell>
        <mxCell id="gASqoC5ZUlllP4egUMLl-55" value="*" style="edgeLabel;html=1;align=center;verticalAlign=middle;resizable=0;points=[];" parent="gASqoC5ZUlllP4egUMLl-54" vertex="1" connectable="0">
          <mxGeometry x="0.6921" y="-4" relative="1" as="geometry">
            <mxPoint as="offset" />
          </mxGeometry>
        </mxCell>
        <mxCell id="gASqoC5ZUlllP4egUMLl-56" value="1" style="edgeLabel;html=1;align=center;verticalAlign=middle;resizable=0;points=[];" parent="gASqoC5ZUlllP4egUMLl-54" vertex="1" connectable="0">
          <mxGeometry x="-0.6537" y="3" relative="1" as="geometry">
            <mxPoint as="offset" />
          </mxGeometry>
        </mxCell>
        <mxCell id="gASqoC5ZUlllP4egUMLl-57" value="ajouter" style="edgeLabel;html=1;align=center;verticalAlign=middle;resizable=0;points=[];" parent="gASqoC5ZUlllP4egUMLl-54" vertex="1" connectable="0">
          <mxGeometry x="0.0372" y="2" relative="1" as="geometry">
            <mxPoint as="offset" />
          </mxGeometry>
        </mxCell>
        <mxCell id="gASqoC5ZUlllP4egUMLl-58" value="Category" style="swimlane;fontStyle=0;childLayout=stackLayout;horizontal=1;startSize=26;fillColor=none;horizontalStack=0;resizeParent=1;resizeParentMax=0;resizeLast=0;collapsible=1;marginBottom=0;whiteSpace=wrap;html=1;" parent="1" vertex="1">
          <mxGeometry x="640" y="52" width="140" height="78" as="geometry" />
        </mxCell>
        <mxCell id="gASqoC5ZUlllP4egUMLl-59" value="-name:string" style="text;strokeColor=none;fillColor=none;align=left;verticalAlign=top;spacingLeft=4;spacingRight=4;overflow=hidden;rotatable=0;points=[[0,0.5],[1,0.5]];portConstraint=eastwest;whiteSpace=wrap;html=1;" parent="gASqoC5ZUlllP4egUMLl-58" vertex="1">
          <mxGeometry y="26" width="140" height="26" as="geometry" />
        </mxCell>
        <mxCell id="gASqoC5ZUlllP4egUMLl-60" value="-description:string" style="text;strokeColor=none;fillColor=none;align=left;verticalAlign=top;spacingLeft=4;spacingRight=4;overflow=hidden;rotatable=0;points=[[0,0.5],[1,0.5]];portConstraint=eastwest;whiteSpace=wrap;html=1;" parent="gASqoC5ZUlllP4egUMLl-58" vertex="1">
          <mxGeometry y="52" width="140" height="26" as="geometry" />
        </mxCell>
        <mxCell id="gASqoC5ZUlllP4egUMLl-62" value="" style="endArrow=none;endFill=0;endSize=24;html=1;rounded=0;" parent="1" source="gASqoC5ZUlllP4egUMLl-1" target="gASqoC5ZUlllP4egUMLl-58" edge="1">
          <mxGeometry width="160" relative="1" as="geometry">
            <mxPoint x="340" y="240" as="sourcePoint" />
            <mxPoint x="500" y="240" as="targetPoint" />
          </mxGeometry>
        </mxCell>
        <mxCell id="gASqoC5ZUlllP4egUMLl-63" value="*" style="edgeLabel;html=1;align=center;verticalAlign=middle;resizable=0;points=[];" parent="gASqoC5ZUlllP4egUMLl-62" vertex="1" connectable="0">
          <mxGeometry x="-0.7291" relative="1" as="geometry">
            <mxPoint as="offset" />
          </mxGeometry>
        </mxCell>
        <mxCell id="gASqoC5ZUlllP4egUMLl-64" value="1" style="edgeLabel;html=1;align=center;verticalAlign=middle;resizable=0;points=[];" parent="gASqoC5ZUlllP4egUMLl-62" vertex="1" connectable="0">
          <mxGeometry x="0.6838" y="1" relative="1" as="geometry">
            <mxPoint as="offset" />
          </mxGeometry>
        </mxCell>
        <mxCell id="gASqoC5ZUlllP4egUMLl-65" value="appartien a" style="edgeLabel;html=1;align=center;verticalAlign=middle;resizable=0;points=[];" parent="gASqoC5ZUlllP4egUMLl-62" vertex="1" connectable="0">
          <mxGeometry x="-0.1545" y="-2" relative="1" as="geometry">
            <mxPoint as="offset" />
          </mxGeometry>
        </mxCell>
        <mxCell id="gASqoC5ZUlllP4egUMLl-83" value="" style="endArrow=none;endFill=0;endSize=24;html=1;rounded=0;edgeStyle=orthogonalEdgeStyle;curved=1;" parent="1" source="gASqoC5ZUlllP4egUMLl-14" target="gASqoC5ZUlllP4egUMLl-34" edge="1">
          <mxGeometry width="160" relative="1" as="geometry">
            <mxPoint x="180" y="745" as="sourcePoint" />
            <mxPoint x="500" y="670" as="targetPoint" />
            <Array as="points">
              <mxPoint x="40" y="745" />
            </Array>
          </mxGeometry>
        </mxCell>
        <mxCell id="gASqoC5ZUlllP4egUMLl-84" value="*" style="edgeLabel;html=1;align=center;verticalAlign=middle;resizable=0;points=[];" parent="gASqoC5ZUlllP4egUMLl-83" vertex="1" connectable="0">
          <mxGeometry x="-0.7686" y="2" relative="1" as="geometry">
            <mxPoint as="offset" />
          </mxGeometry>
        </mxCell>
        <mxCell id="gASqoC5ZUlllP4egUMLl-85" value="*" style="edgeLabel;html=1;align=center;verticalAlign=middle;resizable=0;points=[];" parent="gASqoC5ZUlllP4egUMLl-83" vertex="1" connectable="0">
          <mxGeometry x="0.7999" y="1" relative="1" as="geometry">
            <mxPoint as="offset" />
          </mxGeometry>
        </mxCell>
        <mxCell id="hYoUaHSmlGCQ8pVwYXb8-12" value="likes" style="edgeLabel;html=1;align=center;verticalAlign=middle;resizable=0;points=[];" parent="gASqoC5ZUlllP4egUMLl-83" vertex="1" connectable="0">
          <mxGeometry x="0.112" y="39" relative="1" as="geometry">
            <mxPoint as="offset" />
          </mxGeometry>
        </mxCell>
        <mxCell id="gASqoC5ZUlllP4egUMLl-89" value="Route-Attraction" style="swimlane;fontStyle=0;childLayout=stackLayout;horizontal=1;startSize=26;fillColor=none;horizontalStack=0;resizeParent=1;resizeParentMax=0;resizeLast=0;collapsible=1;marginBottom=0;whiteSpace=wrap;html=1;" parent="1" vertex="1">
          <mxGeometry x="610" y="230" width="140" height="80" as="geometry" />
        </mxCell>
        <mxCell id="gASqoC5ZUlllP4egUMLl-90" value="-name:string" style="text;strokeColor=none;fillColor=none;align=left;verticalAlign=top;spacingLeft=4;spacingRight=4;overflow=hidden;rotatable=0;points=[[0,0.5],[1,0.5]];portConstraint=eastwest;whiteSpace=wrap;html=1;" parent="gASqoC5ZUlllP4egUMLl-89" vertex="1">
          <mxGeometry y="26" width="140" height="26" as="geometry" />
        </mxCell>
        <mxCell id="gASqoC5ZUlllP4egUMLl-91" value="-description:string" style="text;strokeColor=none;fillColor=none;align=left;verticalAlign=top;spacingLeft=4;spacingRight=4;overflow=hidden;rotatable=0;points=[[0,0.5],[1,0.5]];portConstraint=eastwest;whiteSpace=wrap;html=1;" parent="gASqoC5ZUlllP4egUMLl-89" vertex="1">
          <mxGeometry y="52" width="140" height="28" as="geometry" />
        </mxCell>
        <mxCell id="gASqoC5ZUlllP4egUMLl-93" value="Route" style="swimlane;fontStyle=0;childLayout=stackLayout;horizontal=1;startSize=26;fillColor=none;horizontalStack=0;resizeParent=1;resizeParentMax=0;resizeLast=0;collapsible=1;marginBottom=0;whiteSpace=wrap;html=1;" parent="1" vertex="1">
          <mxGeometry x="660" y="380" width="140" height="78" as="geometry" />
        </mxCell>
        <mxCell id="gASqoC5ZUlllP4egUMLl-94" value="-name:string" style="text;strokeColor=none;fillColor=none;align=left;verticalAlign=top;spacingLeft=4;spacingRight=4;overflow=hidden;rotatable=0;points=[[0,0.5],[1,0.5]];portConstraint=eastwest;whiteSpace=wrap;html=1;" parent="gASqoC5ZUlllP4egUMLl-93" vertex="1">
          <mxGeometry y="26" width="140" height="26" as="geometry" />
        </mxCell>
        <mxCell id="gASqoC5ZUlllP4egUMLl-95" value="-description:string" style="text;strokeColor=none;fillColor=none;align=left;verticalAlign=top;spacingLeft=4;spacingRight=4;overflow=hidden;rotatable=0;points=[[0,0.5],[1,0.5]];portConstraint=eastwest;whiteSpace=wrap;html=1;" parent="gASqoC5ZUlllP4egUMLl-93" vertex="1">
          <mxGeometry y="52" width="140" height="26" as="geometry" />
        </mxCell>
        <mxCell id="gASqoC5ZUlllP4egUMLl-97" value="" style="endArrow=none;endFill=0;endSize=24;html=1;rounded=0;" parent="1" source="gASqoC5ZUlllP4egUMLl-1" target="gASqoC5ZUlllP4egUMLl-89" edge="1">
          <mxGeometry width="160" relative="1" as="geometry">
            <mxPoint x="340" y="340" as="sourcePoint" />
            <mxPoint x="500" y="340" as="targetPoint" />
          </mxGeometry>
        </mxCell>
        <mxCell id="gASqoC5ZUlllP4egUMLl-102" value="1" style="edgeLabel;html=1;align=center;verticalAlign=middle;resizable=0;points=[];" parent="gASqoC5ZUlllP4egUMLl-97" vertex="1" connectable="0">
          <mxGeometry x="-0.7828" y="3" relative="1" as="geometry">
            <mxPoint as="offset" />
          </mxGeometry>
        </mxCell>
        <mxCell id="gASqoC5ZUlllP4egUMLl-103" value="*" style="edgeLabel;html=1;align=center;verticalAlign=middle;resizable=0;points=[];" parent="gASqoC5ZUlllP4egUMLl-97" vertex="1" connectable="0">
          <mxGeometry x="0.771" relative="1" as="geometry">
            <mxPoint as="offset" />
          </mxGeometry>
        </mxCell>
        <mxCell id="gASqoC5ZUlllP4egUMLl-104" value="contient" style="edgeLabel;html=1;align=center;verticalAlign=middle;resizable=0;points=[];" parent="gASqoC5ZUlllP4egUMLl-97" vertex="1" connectable="0">
          <mxGeometry x="0.0087" y="-3" relative="1" as="geometry">
            <mxPoint as="offset" />
          </mxGeometry>
        </mxCell>
        <mxCell id="gASqoC5ZUlllP4egUMLl-98" value="" style="endArrow=none;endFill=0;endSize=24;html=1;rounded=0;" parent="1" source="gASqoC5ZUlllP4egUMLl-14" target="gASqoC5ZUlllP4egUMLl-93" edge="1">
          <mxGeometry width="160" relative="1" as="geometry">
            <mxPoint x="340" y="430" as="sourcePoint" />
            <mxPoint x="500" y="430" as="targetPoint" />
          </mxGeometry>
        </mxCell>
        <mxCell id="gASqoC5ZUlllP4egUMLl-99" value="*" style="edgeLabel;html=1;align=center;verticalAlign=middle;resizable=0;points=[];" parent="gASqoC5ZUlllP4egUMLl-98" vertex="1" connectable="0">
          <mxGeometry x="0.8505" y="-3" relative="1" as="geometry">
            <mxPoint as="offset" />
          </mxGeometry>
        </mxCell>
        <mxCell id="gASqoC5ZUlllP4egUMLl-100" value="1" style="edgeLabel;html=1;align=center;verticalAlign=middle;resizable=0;points=[];" parent="gASqoC5ZUlllP4egUMLl-98" vertex="1" connectable="0">
          <mxGeometry x="-0.8719" y="-1" relative="1" as="geometry">
            <mxPoint as="offset" />
          </mxGeometry>
        </mxCell>
        <mxCell id="gASqoC5ZUlllP4egUMLl-101" value="creer" style="edgeLabel;html=1;align=center;verticalAlign=middle;resizable=0;points=[];" parent="gASqoC5ZUlllP4egUMLl-98" vertex="1" connectable="0">
          <mxGeometry x="0.3337" relative="1" as="geometry">
            <mxPoint as="offset" />
          </mxGeometry>
        </mxCell>
        <mxCell id="gASqoC5ZUlllP4egUMLl-105" value="" style="endArrow=none;endFill=0;endSize=24;html=1;rounded=0;" parent="1" source="gASqoC5ZUlllP4egUMLl-93" target="gASqoC5ZUlllP4egUMLl-89" edge="1">
          <mxGeometry width="160" relative="1" as="geometry">
            <mxPoint x="340" y="390" as="sourcePoint" />
            <mxPoint x="500" y="390" as="targetPoint" />
          </mxGeometry>
        </mxCell>
        <mxCell id="gASqoC5ZUlllP4egUMLl-106" value="*" style="edgeLabel;html=1;align=center;verticalAlign=middle;resizable=0;points=[];" parent="gASqoC5ZUlllP4egUMLl-105" vertex="1" connectable="0">
          <mxGeometry x="0.62" y="3" relative="1" as="geometry">
            <mxPoint as="offset" />
          </mxGeometry>
        </mxCell>
        <mxCell id="gASqoC5ZUlllP4egUMLl-107" value="1" style="edgeLabel;html=1;align=center;verticalAlign=middle;resizable=0;points=[];" parent="gASqoC5ZUlllP4egUMLl-105" vertex="1" connectable="0">
          <mxGeometry x="-0.6" y="-3" relative="1" as="geometry">
            <mxPoint as="offset" />
          </mxGeometry>
        </mxCell>
        <mxCell id="gASqoC5ZUlllP4egUMLl-108" value="contient" style="edgeLabel;html=1;align=center;verticalAlign=middle;resizable=0;points=[];" parent="gASqoC5ZUlllP4egUMLl-105" vertex="1" connectable="0">
          <mxGeometry x="0.08" y="-1" relative="1" as="geometry">
            <mxPoint as="offset" />
          </mxGeometry>
        </mxCell>
        <mxCell id="hYoUaHSmlGCQ8pVwYXb8-8" value="" style="endArrow=none;endFill=0;endSize=24;html=1;rounded=0;startFill=0;edgeStyle=orthogonalEdgeStyle;curved=1;" parent="1" source="gASqoC5ZUlllP4egUMLl-14" target="gASqoC5ZUlllP4egUMLl-1" edge="1">
          <mxGeometry width="160" relative="1" as="geometry">
            <mxPoint x="-70" y="381" as="sourcePoint" />
            <mxPoint x="270" y="50" as="targetPoint" />
            <Array as="points">
              <mxPoint x="-70" y="500" />
              <mxPoint x="-70" y="50" />
            </Array>
          </mxGeometry>
        </mxCell>
        <mxCell id="hYoUaHSmlGCQ8pVwYXb8-9" value="like" style="edgeLabel;html=1;align=center;verticalAlign=middle;resizable=0;points=[];" parent="hYoUaHSmlGCQ8pVwYXb8-8" vertex="1" connectable="0">
          <mxGeometry x="-0.1526" y="-23" relative="1" as="geometry">
            <mxPoint as="offset" />
          </mxGeometry>
        </mxCell>
        <mxCell id="hYoUaHSmlGCQ8pVwYXb8-10" value="*" style="edgeLabel;html=1;align=center;verticalAlign=middle;resizable=0;points=[];" parent="hYoUaHSmlGCQ8pVwYXb8-8" vertex="1" connectable="0">
          <mxGeometry x="-0.9423" y="-7" relative="1" as="geometry">
            <mxPoint as="offset" />
          </mxGeometry>
        </mxCell>
        <mxCell id="hYoUaHSmlGCQ8pVwYXb8-11" value="*" style="edgeLabel;html=1;align=center;verticalAlign=middle;resizable=0;points=[];" parent="hYoUaHSmlGCQ8pVwYXb8-8" vertex="1" connectable="0">
          <mxGeometry x="0.8515" y="-4" relative="1" as="geometry">
            <mxPoint as="offset" />
          </mxGeometry>
        </mxCell>
      </root>
    </mxGraphModel>
  </diagram>
</mxfile>
